<mxfile host="app.diagrams.net" agent="Mozilla/5.0 (Windows NT 10.0; Win64; x64) AppleWebKit/537.36 (KHTML, like Gecko) Chrome/127.0.0.0 Safari/537.36" version="24.7.6">
  <diagram name="第 1 页" id="Vq7E_juNB8IA1V92Wd6a">
    <mxGraphModel dx="867" dy="444" grid="1" gridSize="5" guides="1" tooltips="1" connect="1" arrows="1" fold="1" page="1" pageScale="1" pageWidth="3300" pageHeight="4681" math="0" shadow="0">
      <root>
        <mxCell id="0" />
        <mxCell id="1" parent="0" />
        <mxCell id="bP4SKRxJgAOZLgYwFLmc-1" value="" style="verticalLabelPosition=bottom;shadow=0;dashed=0;align=center;html=1;verticalAlign=top;shape=mxgraph.electrical.transistors.nmos;pointerEvents=1;" vertex="1" parent="1">
          <mxGeometry x="380" y="263" width="60" height="100" as="geometry" />
        </mxCell>
        <mxCell id="bP4SKRxJgAOZLgYwFLmc-2" value="" style="verticalLabelPosition=bottom;shadow=0;dashed=0;align=center;html=1;verticalAlign=top;shape=mxgraph.electrical.transistors.pmos;pointerEvents=1;" vertex="1" parent="1">
          <mxGeometry x="380" y="140" width="60" height="100" as="geometry" />
        </mxCell>
        <mxCell id="bP4SKRxJgAOZLgYwFLmc-3" value="" style="verticalLabelPosition=bottom;shadow=0;dashed=0;align=center;html=1;verticalAlign=top;shape=mxgraph.electrical.transistors.nmos;pointerEvents=1;flipH=1;" vertex="1" parent="1">
          <mxGeometry x="570" y="263" width="60" height="100" as="geometry" />
        </mxCell>
        <mxCell id="bP4SKRxJgAOZLgYwFLmc-4" value="" style="verticalLabelPosition=bottom;shadow=0;dashed=0;align=center;html=1;verticalAlign=top;shape=mxgraph.electrical.transistors.pmos;pointerEvents=1;direction=north;" vertex="1" parent="1">
          <mxGeometry x="520" y="130" width="100" height="60" as="geometry" />
        </mxCell>
        <mxCell id="bP4SKRxJgAOZLgYwFLmc-5" value="" style="verticalLabelPosition=bottom;shadow=0;dashed=0;align=center;html=1;verticalAlign=top;shape=mxgraph.electrical.transistors.pmos;pointerEvents=1;direction=west;flipH=0;flipV=1;" vertex="1" parent="1">
          <mxGeometry x="270" y="80" width="60" height="100" as="geometry" />
        </mxCell>
        <mxCell id="bP4SKRxJgAOZLgYwFLmc-6" value="" style="verticalLabelPosition=bottom;shadow=0;dashed=0;align=center;html=1;verticalAlign=top;shape=mxgraph.electrical.transistors.nmos;pointerEvents=1;direction=south;" vertex="1" parent="1">
          <mxGeometry x="150" y="300" width="100" height="60" as="geometry" />
        </mxCell>
        <mxCell id="bP4SKRxJgAOZLgYwFLmc-7" value="" style="verticalLabelPosition=bottom;shadow=0;dashed=0;align=center;html=1;verticalAlign=top;shape=mxgraph.electrical.transistors.nmos;pointerEvents=1;direction=south;flipH=1;" vertex="1" parent="1">
          <mxGeometry x="660" y="70" width="100" height="60" as="geometry" />
        </mxCell>
        <mxCell id="bP4SKRxJgAOZLgYwFLmc-8" value="" style="verticalLabelPosition=bottom;shadow=0;dashed=0;align=center;html=1;verticalAlign=top;shape=mxgraph.electrical.transistors.nmos;pointerEvents=1;direction=south;flipH=1;" vertex="1" parent="1">
          <mxGeometry x="790" y="70" width="100" height="60" as="geometry" />
        </mxCell>
        <mxCell id="bP4SKRxJgAOZLgYwFLmc-9" value="" style="verticalLabelPosition=bottom;shadow=0;dashed=0;align=center;html=1;verticalAlign=top;shape=mxgraph.electrical.transistors.nmos;pointerEvents=1;direction=south;" vertex="1" parent="1">
          <mxGeometry x="805" y="283" width="100" height="60" as="geometry" />
        </mxCell>
        <mxCell id="bP4SKRxJgAOZLgYwFLmc-10" value="" style="verticalLabelPosition=bottom;shadow=0;dashed=0;align=center;html=1;verticalAlign=top;shape=mxgraph.electrical.transistors.nmos;pointerEvents=1;direction=south;" vertex="1" parent="1">
          <mxGeometry x="685" y="195" width="100" height="60" as="geometry" />
        </mxCell>
        <mxCell id="bP4SKRxJgAOZLgYwFLmc-12" value="" style="endArrow=none;html=1;rounded=0;exitX=1;exitY=0;exitDx=0;exitDy=0;exitPerimeter=0;" edge="1" parent="1" source="bP4SKRxJgAOZLgYwFLmc-5">
          <mxGeometry width="50" height="50" relative="1" as="geometry">
            <mxPoint x="230" y="49.99714285714278" as="sourcePoint" />
            <mxPoint x="530" y="40" as="targetPoint" />
            <Array as="points">
              <mxPoint x="270" y="40" />
            </Array>
          </mxGeometry>
        </mxCell>
        <mxCell id="bP4SKRxJgAOZLgYwFLmc-14" value="" style="pointerEvents=1;verticalLabelPosition=bottom;shadow=0;dashed=0;align=center;html=1;verticalAlign=top;shape=mxgraph.electrical.capacitors.capacitor_1;direction=south;" vertex="1" parent="1">
          <mxGeometry x="250" y="175" width="40" height="110" as="geometry" />
        </mxCell>
        <mxCell id="bP4SKRxJgAOZLgYwFLmc-15" value="" style="endArrow=none;html=1;rounded=0;entryX=1;entryY=1;entryDx=0;entryDy=0;entryPerimeter=0;exitX=1;exitY=0;exitDx=0;exitDy=0;exitPerimeter=0;" edge="1" parent="1" source="bP4SKRxJgAOZLgYwFLmc-1" target="bP4SKRxJgAOZLgYwFLmc-2">
          <mxGeometry width="50" height="50" relative="1" as="geometry">
            <mxPoint x="390" y="290" as="sourcePoint" />
            <mxPoint x="440" y="240" as="targetPoint" />
          </mxGeometry>
        </mxCell>
        <mxCell id="bP4SKRxJgAOZLgYwFLmc-17" value="" style="endArrow=none;html=1;rounded=0;" edge="1" parent="1">
          <mxGeometry width="50" height="50" relative="1" as="geometry">
            <mxPoint x="710" y="70" as="sourcePoint" />
            <mxPoint x="530" y="40" as="targetPoint" />
            <Array as="points">
              <mxPoint x="710" y="40" />
            </Array>
          </mxGeometry>
        </mxCell>
        <mxCell id="bP4SKRxJgAOZLgYwFLmc-18" value="" style="endArrow=none;html=1;rounded=0;exitX=0.999;exitY=1.715;exitDx=0;exitDy=0;exitPerimeter=0;entryX=0.999;entryY=-0.722;entryDx=0;entryDy=0;entryPerimeter=0;" edge="1" parent="1" source="bP4SKRxJgAOZLgYwFLmc-7" target="bP4SKRxJgAOZLgYwFLmc-8">
          <mxGeometry width="50" height="50" relative="1" as="geometry">
            <mxPoint x="750" y="130" as="sourcePoint" />
            <mxPoint x="780" y="130" as="targetPoint" />
          </mxGeometry>
        </mxCell>
        <mxCell id="bP4SKRxJgAOZLgYwFLmc-19" value="" style="endArrow=none;html=1;rounded=0;exitX=1;exitY=1.723;exitDx=0;exitDy=0;exitPerimeter=0;" edge="1" parent="1" source="bP4SKRxJgAOZLgYwFLmc-8">
          <mxGeometry width="50" height="50" relative="1" as="geometry">
            <mxPoint x="880" y="130" as="sourcePoint" />
            <mxPoint x="910" y="130" as="targetPoint" />
          </mxGeometry>
        </mxCell>
        <mxCell id="bP4SKRxJgAOZLgYwFLmc-20" value="" style="endArrow=none;html=1;rounded=0;exitX=1;exitY=0;exitDx=0;exitDy=0;exitPerimeter=0;" edge="1" parent="1" source="bP4SKRxJgAOZLgYwFLmc-2">
          <mxGeometry width="50" height="50" relative="1" as="geometry">
            <mxPoint x="450" y="160" as="sourcePoint" />
            <mxPoint x="440" y="40" as="targetPoint" />
          </mxGeometry>
        </mxCell>
        <mxCell id="bP4SKRxJgAOZLgYwFLmc-22" value="" style="endArrow=none;html=1;rounded=0;entryX=1;entryY=0.5;entryDx=0;entryDy=0;entryPerimeter=0;" edge="1" parent="1" target="bP4SKRxJgAOZLgYwFLmc-14">
          <mxGeometry width="50" height="50" relative="1" as="geometry">
            <mxPoint x="247" y="360" as="sourcePoint" />
            <mxPoint x="320" y="310" as="targetPoint" />
            <Array as="points">
              <mxPoint x="270" y="360" />
            </Array>
          </mxGeometry>
        </mxCell>
        <mxCell id="bP4SKRxJgAOZLgYwFLmc-24" value="" style="endArrow=none;html=1;rounded=0;exitX=1.001;exitY=1.723;exitDx=0;exitDy=0;exitPerimeter=0;" edge="1" parent="1" source="bP4SKRxJgAOZLgYwFLmc-4">
          <mxGeometry width="50" height="50" relative="1" as="geometry">
            <mxPoint x="620" y="130" as="sourcePoint" />
            <mxPoint x="664" y="130" as="targetPoint" />
          </mxGeometry>
        </mxCell>
        <mxCell id="bP4SKRxJgAOZLgYwFLmc-26" value="" style="endArrow=none;html=1;rounded=0;exitX=0;exitY=0.5;exitDx=0;exitDy=0;exitPerimeter=0;" edge="1" parent="1" source="bP4SKRxJgAOZLgYwFLmc-1">
          <mxGeometry width="50" height="50" relative="1" as="geometry">
            <mxPoint x="330" y="240" as="sourcePoint" />
            <mxPoint x="380" y="190" as="targetPoint" />
          </mxGeometry>
        </mxCell>
        <mxCell id="bP4SKRxJgAOZLgYwFLmc-27" value="" style="endArrow=none;html=1;rounded=0;entryX=0;entryY=0.5;entryDx=0;entryDy=0;entryPerimeter=0;" edge="1" parent="1" target="bP4SKRxJgAOZLgYwFLmc-5">
          <mxGeometry width="50" height="50" relative="1" as="geometry">
            <mxPoint x="655" y="130" as="sourcePoint" />
            <mxPoint x="299.8" y="130" as="targetPoint" />
            <Array as="points">
              <mxPoint x="655" y="75" />
              <mxPoint x="330" y="75" />
            </Array>
          </mxGeometry>
        </mxCell>
        <mxCell id="bP4SKRxJgAOZLgYwFLmc-28" value="" style="endArrow=none;html=1;rounded=0;entryX=1;entryY=1;entryDx=0;entryDy=0;entryPerimeter=0;" edge="1" parent="1" target="bP4SKRxJgAOZLgYwFLmc-3">
          <mxGeometry width="50" height="50" relative="1" as="geometry">
            <mxPoint x="220" y="360" as="sourcePoint" />
            <mxPoint x="350" y="310" as="targetPoint" />
          </mxGeometry>
        </mxCell>
        <mxCell id="bP4SKRxJgAOZLgYwFLmc-29" value="" style="endArrow=none;html=1;rounded=0;" edge="1" parent="1">
          <mxGeometry width="50" height="50" relative="1" as="geometry">
            <mxPoint x="361" y="253" as="sourcePoint" />
            <mxPoint x="380" y="253" as="targetPoint" />
          </mxGeometry>
        </mxCell>
        <mxCell id="bP4SKRxJgAOZLgYwFLmc-31" value="" style="endArrow=none;html=1;rounded=0;exitX=1;exitY=0;exitDx=0;exitDy=0;exitPerimeter=0;" edge="1" parent="1" source="bP4SKRxJgAOZLgYwFLmc-3">
          <mxGeometry width="50" height="50" relative="1" as="geometry">
            <mxPoint x="570" y="255" as="sourcePoint" />
            <mxPoint x="570" y="190" as="targetPoint" />
          </mxGeometry>
        </mxCell>
        <mxCell id="bP4SKRxJgAOZLgYwFLmc-32" value="" style="endArrow=none;html=1;rounded=0;" edge="1" parent="1">
          <mxGeometry width="50" height="50" relative="1" as="geometry">
            <mxPoint x="440" y="250" as="sourcePoint" />
            <mxPoint x="570" y="250" as="targetPoint" />
          </mxGeometry>
        </mxCell>
        <mxCell id="bP4SKRxJgAOZLgYwFLmc-34" value="" style="endArrow=none;html=1;rounded=0;exitX=0;exitY=0.5;exitDx=0;exitDy=0;exitPerimeter=0;" edge="1" parent="1" source="bP4SKRxJgAOZLgYwFLmc-10">
          <mxGeometry width="50" height="50" relative="1" as="geometry">
            <mxPoint x="720" y="195" as="sourcePoint" />
            <mxPoint x="655" y="130" as="targetPoint" />
            <Array as="points">
              <mxPoint x="655" y="195" />
            </Array>
          </mxGeometry>
        </mxCell>
        <mxCell id="bP4SKRxJgAOZLgYwFLmc-35" value="" style="endArrow=none;html=1;rounded=0;entryX=0.999;entryY=-0.733;entryDx=0;entryDy=0;entryPerimeter=0;exitX=1.001;exitY=1.724;exitDx=0;exitDy=0;exitPerimeter=0;" edge="1" parent="1" source="bP4SKRxJgAOZLgYwFLmc-9" target="bP4SKRxJgAOZLgYwFLmc-10">
          <mxGeometry width="50" height="50" relative="1" as="geometry">
            <mxPoint x="770" y="310" as="sourcePoint" />
            <mxPoint x="770" y="255" as="targetPoint" />
            <Array as="points">
              <mxPoint x="782" y="343" />
            </Array>
          </mxGeometry>
        </mxCell>
        <mxCell id="bP4SKRxJgAOZLgYwFLmc-37" value="" style="endArrow=none;html=1;rounded=0;exitX=1;exitY=1;exitDx=0;exitDy=0;exitPerimeter=0;" edge="1" parent="1" source="bP4SKRxJgAOZLgYwFLmc-3">
          <mxGeometry width="50" height="50" relative="1" as="geometry">
            <mxPoint x="690" y="340" as="sourcePoint" />
            <mxPoint x="690" y="255" as="targetPoint" />
            <Array as="points">
              <mxPoint x="690" y="360" />
            </Array>
          </mxGeometry>
        </mxCell>
        <mxCell id="bP4SKRxJgAOZLgYwFLmc-38" value="" style="endArrow=none;html=1;rounded=0;exitX=0;exitY=0.5;exitDx=0;exitDy=0;exitPerimeter=0;" edge="1" parent="1" source="bP4SKRxJgAOZLgYwFLmc-3">
          <mxGeometry width="50" height="50" relative="1" as="geometry">
            <mxPoint x="630" y="315" as="sourcePoint" />
            <mxPoint x="670" y="195" as="targetPoint" />
            <Array as="points">
              <mxPoint x="630" y="195" />
            </Array>
          </mxGeometry>
        </mxCell>
        <mxCell id="bP4SKRxJgAOZLgYwFLmc-39" value="" style="endArrow=none;html=1;rounded=0;exitX=0;exitY=0.5;exitDx=0;exitDy=0;exitPerimeter=0;entryX=0;entryY=0.5;entryDx=0;entryDy=0;entryPerimeter=0;" edge="1" parent="1" source="bP4SKRxJgAOZLgYwFLmc-9" target="bP4SKRxJgAOZLgYwFLmc-10">
          <mxGeometry width="50" height="50" relative="1" as="geometry">
            <mxPoint x="860" y="275" as="sourcePoint" />
            <mxPoint x="910" y="225" as="targetPoint" />
            <Array as="points">
              <mxPoint x="855" y="195" />
            </Array>
          </mxGeometry>
        </mxCell>
        <mxCell id="bP4SKRxJgAOZLgYwFLmc-41" value="" style="endArrow=none;html=1;rounded=0;exitX=1.002;exitY=-0.716;exitDx=0;exitDy=0;exitPerimeter=0;" edge="1" parent="1" source="bP4SKRxJgAOZLgYwFLmc-9">
          <mxGeometry width="50" height="50" relative="1" as="geometry">
            <mxPoint x="910" y="340" as="sourcePoint" />
            <mxPoint x="975" y="343" as="targetPoint" />
          </mxGeometry>
        </mxCell>
        <mxCell id="bP4SKRxJgAOZLgYwFLmc-42" value="" style="pointerEvents=1;verticalLabelPosition=bottom;shadow=0;dashed=0;align=center;html=1;verticalAlign=top;shape=mxgraph.electrical.capacitors.capacitor_1;direction=south;" vertex="1" parent="1">
          <mxGeometry x="955" y="343" width="40" height="110" as="geometry" />
        </mxCell>
        <mxCell id="bP4SKRxJgAOZLgYwFLmc-43" value="" style="pointerEvents=1;verticalLabelPosition=bottom;shadow=0;dashed=0;align=center;html=1;verticalAlign=top;shape=mxgraph.electrical.signal_sources.signal_ground;" vertex="1" parent="1">
          <mxGeometry x="952.5" y="453" width="45" height="30" as="geometry" />
        </mxCell>
        <mxCell id="bP4SKRxJgAOZLgYwFLmc-46" value="VDD" style="text;strokeColor=none;align=center;fillColor=none;html=1;verticalAlign=middle;whiteSpace=wrap;rounded=0;fontFamily=Times New Roman;fontStyle=1;fontSize=17;" vertex="1" parent="1">
          <mxGeometry x="445" y="10" width="60" height="30" as="geometry" />
        </mxCell>
        <mxCell id="bP4SKRxJgAOZLgYwFLmc-48" value="" style="endArrow=none;html=1;rounded=0;entryX=0.999;entryY=-0.698;entryDx=0;entryDy=0;entryPerimeter=0;exitX=0;exitY=0.5;exitDx=0;exitDy=0;exitPerimeter=0;" edge="1" parent="1" source="bP4SKRxJgAOZLgYwFLmc-14" target="bP4SKRxJgAOZLgYwFLmc-4">
          <mxGeometry width="50" height="50" relative="1" as="geometry">
            <mxPoint x="345" y="140" as="sourcePoint" />
            <mxPoint x="515" y="135" as="targetPoint" />
            <Array as="points">
              <mxPoint x="380" y="175" />
              <mxPoint x="380" y="130" />
            </Array>
          </mxGeometry>
        </mxCell>
        <mxCell id="bP4SKRxJgAOZLgYwFLmc-49" value="GND" style="text;strokeColor=none;align=center;fillColor=none;html=1;verticalAlign=middle;whiteSpace=wrap;rounded=0;fontFamily=Times New Roman;fontStyle=1;fontSize=17;" vertex="1" parent="1">
          <mxGeometry x="100" y="343" width="60" height="30" as="geometry" />
        </mxCell>
        <mxCell id="bP4SKRxJgAOZLgYwFLmc-50" value="CLKB" style="text;strokeColor=none;align=center;fillColor=none;html=1;verticalAlign=middle;whiteSpace=wrap;rounded=0;fontFamily=Times New Roman;fontStyle=1;fontSize=17;" vertex="1" parent="1">
          <mxGeometry x="320" y="225" width="60" height="30" as="geometry" />
        </mxCell>
        <mxCell id="bP4SKRxJgAOZLgYwFLmc-51" value="CLK" style="text;strokeColor=none;align=center;fillColor=none;html=1;verticalAlign=middle;whiteSpace=wrap;rounded=0;fontFamily=Times New Roman;fontStyle=1;fontSize=17;" vertex="1" parent="1">
          <mxGeometry x="170" y="275" width="60" height="30" as="geometry" />
        </mxCell>
        <mxCell id="bP4SKRxJgAOZLgYwFLmc-52" value="GND" style="text;strokeColor=none;align=center;fillColor=none;html=1;verticalAlign=middle;whiteSpace=wrap;rounded=0;fontFamily=Times New Roman;fontStyle=1;fontSize=17;" vertex="1" parent="1">
          <mxGeometry x="905" y="115" width="60" height="30" as="geometry" />
        </mxCell>
        <mxCell id="bP4SKRxJgAOZLgYwFLmc-53" value="CLK" style="text;strokeColor=none;align=center;fillColor=none;html=1;verticalAlign=middle;whiteSpace=wrap;rounded=0;fontFamily=Times New Roman;fontStyle=1;fontSize=17;" vertex="1" parent="1">
          <mxGeometry x="810" y="40" width="60" height="30" as="geometry" />
        </mxCell>
      </root>
    </mxGraphModel>
  </diagram>
</mxfile>
